<svg width="558" height="160" viewBox="0 0 558 160" fill="none" xmlns="http://www.w3.org/2000/svg">
<rect x="0.484497" y="39.3292" width="550" height="120" transform="rotate(-4 0.484497 39.3292)" fill="#D5EBEB"/>
<path d="M76.9366 102.929V106.025H31.0006V102.929H40.7926C38.1526 101.585 35.7526 99.8565 33.5926 97.7445L40.2886 89.5365C45.7126 94.2885 50.7286 96.6645 55.3366 96.6645C57.4006 96.6645 59.0086 96.2325 60.1606 95.3685C61.3606 94.4565 61.9606 93.2565 61.9606 91.7685C61.9606 90.2325 61.3366 89.0325 60.0886 88.1685C58.8406 87.2565 56.3686 86.3445 52.6726 85.4325C46.8166 84.0405 42.5206 82.2405 39.7846 80.0325C37.0966 77.7765 35.7526 74.2725 35.7526 69.5205C35.7526 64.7205 37.4566 61.0245 40.8646 58.4325C44.3206 55.8405 48.6166 54.5445 53.7526 54.5445C57.1126 54.5445 60.4726 55.1205 63.8326 56.2725C67.1926 57.4245 70.1206 59.0565 72.6166 61.1685L66.9286 69.3765C62.5606 66.0645 58.0486 64.4085 53.3926 64.4085C51.5206 64.4085 50.0326 64.8645 48.9286 65.7765C47.8726 66.6405 47.3446 67.8165 47.3446 69.3045C47.3446 70.7445 47.9926 71.8965 49.2886 72.7605C50.6326 73.6245 53.6806 74.6565 58.4326 75.8565C63.2326 77.0085 66.9526 78.7605 69.5926 81.1125C72.2326 83.4645 73.5526 86.7285 73.5526 90.9045C73.5526 96.0885 71.6086 100.097 67.7206 102.929H76.9366ZM128.179 74.3445L114.571 101.849H107.875L94.3387 74.3445V106.025H76.1227V102.929H83.1067V55.6965H98.2987L111.259 83.3445L124.291 55.6965H139.411V102.929H146.395V106.025H128.179V74.3445ZM206.594 102.929V106.025H187.658L182.978 95.1525H161.882L157.202 106.025H138.266V102.929H146.546L166.994 55.6965H177.866L198.242 102.929H206.594ZM172.466 70.6725L166.13 85.2885H178.73L172.466 70.6725ZM205.45 102.929V55.6965H224.53C232.354 55.6965 237.922 57.0165 241.234 59.6565C244.594 62.2965 246.274 66.5445 246.274 72.4005C246.274 80.4645 243.082 85.6725 236.698 88.0245L247.21 102.929H253.978V106.025H235.618L224.458 89.9685H216.682V106.025H198.466V102.929H205.45ZM224.89 80.2485C228.73 80.2485 231.346 79.6245 232.738 78.3765C234.13 77.1285 234.826 75.1605 234.826 72.4725C234.826 69.7365 234.106 67.8645 232.666 66.8565C231.226 65.8485 228.706 65.3445 225.106 65.3445H216.682V80.2485H224.89ZM295.347 102.929V106.025H251.571V102.929H267.843V65.4165H253.587V55.6965H293.331V65.4165H279.075V102.929H295.347ZM350.24 102.929V106.025H332.816V86.2245H312.8V106.025H295.376V102.929H301.568V55.6965H312.8V76.7205H332.816V55.6965H344.048V102.929H350.24ZM409.691 102.929V106.025H350.219V102.929H366.275C362.339 100.673 359.219 97.5765 356.915 93.6405C354.659 89.7045 353.531 85.3365 353.531 80.5365C353.531 73.1445 356.075 66.9765 361.163 62.0325C366.251 57.0405 372.515 54.5445 379.955 54.5445C387.395 54.5445 393.659 57.0405 398.747 62.0325C403.835 66.9765 406.379 73.1445 406.379 80.5365C406.379 85.3365 405.227 89.7045 402.923 93.6405C400.619 97.5765 397.523 100.673 393.635 102.929H409.691ZM394.931 80.6085C394.931 76.0965 393.491 72.2565 390.611 69.0885C387.731 65.9205 384.179 64.3365 379.955 64.3365C375.779 64.3365 372.251 65.9205 369.371 69.0885C366.491 72.2565 365.051 76.0965 365.051 80.6085C365.051 85.0725 366.491 88.8885 369.371 92.0565C372.251 95.1765 375.779 96.7365 379.955 96.7365C384.179 96.7365 387.731 95.1765 390.611 92.0565C393.491 88.8885 394.931 85.0725 394.931 80.6085ZM460.968 74.3445L447.36 101.849H440.664L427.128 74.3445V106.025H408.912V102.929H415.896V55.6965H431.088L444.048 83.3445L457.08 55.6965H472.2V102.929H479.184V106.025H460.968V74.3445ZM484.591 102.929V55.6965H520.879V65.7045H495.823V76.0725H518.359V85.6485H495.823V96.0885H521.671V102.929H528.655V106.025H477.607V102.929H484.591Z" fill="#202020"/>
</svg>
